<svg width="24" height="22" viewBox="0 0 24 22" fill="none" xmlns="http://www.w3.org/2000/svg">
<path d="M2.36741 18.6475C3.76741 20.3333 6.37141 20.3333 11.5817 20.3333H12.4217C17.6321 20.3333 20.2372 20.3333 21.6372 18.6475M2.36741 18.6475C0.967411 16.9605 1.44808 14.4008 2.40824 9.27913C3.09074 5.63913 3.43141 3.81796 4.72758 2.74229M21.6372 18.6475C23.0372 16.9605 22.5566 14.4008 21.5964 9.27913C20.9139 5.63913 20.5721 3.81796 19.2759 2.74229M19.2759 2.74229C17.9809 1.66663 16.1271 1.66663 12.4229 1.66663H11.5806C7.87641 1.66663 6.02374 1.66663 4.72758 2.74229" stroke="black" stroke-width="1.5"/>
<path d="M8.69922 6.33325C8.94025 7.01637 9.38725 7.60791 9.97858 8.02633C10.5699 8.44475 11.2765 8.66944 12.0009 8.66944C12.7253 8.66944 13.4318 8.44475 14.0232 8.02633C14.6145 7.60791 15.0615 7.01637 15.3026 6.33325" stroke="black" stroke-width="1.5" stroke-linecap="round"/>
</svg>
